<svg width="52" height="52" viewBox="0 0 52 52" fill="none" xmlns="http://www.w3.org/2000/svg">
<g clip-path="url(#clip0_329_237)">
<path d="M26 52C40.3594 52 52 40.3594 52 26C52 11.6406 40.3594 0 26 0C11.6406 0 0 11.6406 0 26C0 40.3594 11.6406 52 26 52Z" fill="#DC9600"/>
<path fill-rule="evenodd" clip-rule="evenodd" d="M44.6124 26.2241C44.6124 19.595 42.9046 11.2171 34.242 11.2171C25.5791 11.2171 23.7085 19.595 23.7085 26.2241C23.7085 32.8533 25.4166 41.2311 34.0792 41.2311C42.7418 41.2311 44.6124 32.8533 44.6124 26.2241ZM38.3901 26.2241C38.3901 29.0712 38.2272 36.4322 34.1603 36.4322C30.0934 36.4322 29.8903 29.1115 29.8903 26.2241C29.8903 23.2959 30.0123 16.0568 34.1603 16.0568C38.2681 16.0568 38.3901 23.2148 38.3901 26.2241Z" fill="black"/>
<path fill-rule="evenodd" clip-rule="evenodd" d="M20.0721 40.4991V11.7868H15.0696C13.7684 12.8035 10.6773 14.715 7.34257 16.3008L5.59394 17.1144L7.54599 21.5064L9.05066 20.7337C10.1082 20.2049 12.9956 18.7002 13.9717 17.9275V40.4991H20.0721Z" fill="black"/>
</g>
<defs>
<clipPath id="clip0_329_237">
<rect width="52" height="52" fill="white"/>
</clipPath>
</defs>
</svg>
