<svg width="52" height="52" viewBox="0 0 52 52" fill="none" xmlns="http://www.w3.org/2000/svg">
<g clip-path="url(#clip0_329_238)">
<path d="M26 52C40.3594 52 52 40.3594 52 26C52 11.6406 40.3594 0 26 0C11.6406 0 0 11.6406 0 26C0 40.3594 11.6406 52 26 52Z" fill="#6E491E"/>
<path fill-rule="evenodd" clip-rule="evenodd" d="M21.8122 40.4991V11.7868H16.8097C15.5084 12.8035 12.4177 14.715 9.08265 16.3008L7.33376 17.1144L9.28607 21.5064L10.7907 20.7337C11.848 20.2049 14.7357 18.7002 15.7116 17.9275V40.4991H21.8122Z" fill="white"/>
<path fill-rule="evenodd" clip-rule="evenodd" d="M39.1871 40.4991V11.7868H34.1846C32.883 12.8035 29.7926 14.715 26.4576 16.3008L24.7086 17.1144L26.6612 21.5064L28.1659 20.7337C29.2229 20.2049 32.1103 18.7002 33.0862 17.9275V40.4991H39.1871Z" fill="white"/>
</g>
<defs>
<clipPath id="clip0_329_238">
<rect width="52" height="52" fill="white"/>
</clipPath>
</defs>
</svg>
