<svg width="52" height="52" viewBox="0 0 52 52" fill="none" xmlns="http://www.w3.org/2000/svg">
<g clip-path="url(#clip0_329_239)">
<path d="M26 52C40.3594 52 52 40.3594 52 26C52 11.6406 40.3594 0 26 0C11.6406 0 0 11.6406 0 26C0 40.3594 11.6406 52 26 52Z" fill="#00643C"/>
<path fill-rule="evenodd" clip-rule="evenodd" d="M20.4267 40.4991V11.7868H15.4243C14.123 12.8035 11.0323 14.715 7.69725 16.3008L5.94858 17.1144L7.90061 21.5064L9.40556 20.7337C10.4629 20.2049 13.3502 18.7002 14.3264 17.9275V40.4991H20.4267Z" fill="white"/>
<path fill-rule="evenodd" clip-rule="evenodd" d="M43.8287 40.4991V35.6997H31.9939C32.3598 34.0328 35.2472 31.6328 36.7116 30.291C40.168 27.1597 43.2998 24.9225 43.2998 20.0017C43.2998 14.1453 38.5413 11.2988 33.4985 11.2988C29.6353 11.2988 27.073 12.4375 24.3074 14.8369L27.317 18.8222C28.0081 18.0494 29.7567 16.2196 32.2781 16.2196C35.41 16.2196 37.0367 18.2123 37.0367 20.6928C37.0367 23.4587 34.9629 25.4513 33.0509 27.1188C29.2279 30.4538 25.934 33.382 25.2021 36.7165V40.4991H43.8287Z" fill="white"/>
</g>
<defs>
<clipPath id="clip0_329_239">
<rect width="52" height="52" fill="white"/>
</clipPath>
</defs>
</svg>
