<svg width="52" height="52" viewBox="0 0 52 52" fill="none" xmlns="http://www.w3.org/2000/svg">
<g clip-path="url(#clip0_329_240)">
<path d="M26 52C40.3594 52 52 40.3594 52 26C52 11.6406 40.3594 0 26 0C11.6406 0 0 11.6406 0 26C0 40.3594 11.6406 52 26 52Z" fill="#82C8E6"/>
<path fill-rule="evenodd" clip-rule="evenodd" d="M20.198 40.4991V11.7868H15.1958C13.8942 12.8035 10.8035 14.715 7.46846 16.3008L5.71979 17.1144L7.67182 21.5064L9.17677 20.7337C10.2341 20.2049 13.1214 18.7002 14.0976 17.9275V40.4991H20.198Z" fill="black"/>
<path fill-rule="evenodd" clip-rule="evenodd" d="M43.6404 31.9994C43.6404 27.9727 41.241 25.6142 38.0683 25.0042V24.9225C41.119 23.7838 42.7048 21.5064 42.7048 18.5379C42.7048 14.715 39.3698 11.2988 33.5134 11.2988C30.1381 11.2988 27.3727 12.2338 24.8919 13.8605L26.8848 18.0903C27.8204 17.2766 29.5691 16.0159 32.2124 16.0159C35.2217 16.0159 36.6044 17.6023 36.6044 19.4321C36.6044 21.6284 34.8558 23.0111 32.0496 23.0111H29.0402V27.7696H32.0088C34.9375 27.7696 37.4589 28.8272 37.4589 32.1208C37.4589 34.5616 35.3846 36.3505 32.0496 36.3505C29.6099 36.3505 27.6167 35.4155 26.3963 34.4799L24.2006 38.9128C26.5189 40.2143 28.7554 41.0682 32.4564 41.0682C39.1259 41.0682 43.6404 37.0421 43.6404 31.9994Z" fill="black"/>
</g>
<defs>
<clipPath id="clip0_329_240">
<rect width="52" height="52" fill="white"/>
</clipPath>
</defs>
</svg>
