<svg width="52" height="52" viewBox="0 0 52 52" fill="none" xmlns="http://www.w3.org/2000/svg">
<g clip-path="url(#clip0_329_241)">
<path d="M26 52.0001C40.3593 52.0001 51.9999 40.3596 51.9999 26.0002C51.9999 11.6409 40.3593 0.000289917 26 0.000289917C11.6406 0.000289917 6.10352e-05 11.6409 6.10352e-05 26.0002C6.10352e-05 40.3596 11.6406 52.0001 26 52.0001Z" fill="#640082"/>
<path fill-rule="evenodd" clip-rule="evenodd" d="M45.043 34.5208V30.0471H41.5048V11.7868H34.1846L23.0414 29.1932V34.5208H35.9741V40.4991H41.5048V34.5208H45.043ZM35.9741 30.0471H27.9628L33.8192 20.8562C34.9574 19.0667 35.771 17.3178 35.8924 16.8299H35.9741V30.0471Z" fill="white"/>
<path fill-rule="evenodd" clip-rule="evenodd" d="M19.893 40.4991V11.7868H14.8905C13.5892 12.8035 10.4985 14.715 7.16345 16.3011L5.41483 17.1144L7.36687 21.5067L8.87154 20.7342C9.92912 20.2054 12.8165 18.7007 13.7926 17.928V40.4991H19.893Z" fill="white"/>
</g>
<defs>
<clipPath id="clip0_329_241">
<rect width="52" height="52" fill="white"/>
</clipPath>
</defs>
</svg>
