<svg width="52" height="52" viewBox="0 0 52 52" fill="none" xmlns="http://www.w3.org/2000/svg">
<g clip-path="url(#clip0_329_247)">
<path d="M26 52C40.3594 52 52 40.3594 52 26C52 11.6406 40.3594 0 26 0C11.6406 0 0 11.6406 0 26C0 40.3594 11.6406 52 26 52Z" fill="#0055C8"/>
<path fill-rule="evenodd" clip-rule="evenodd" d="M35.3874 40.5025V35.7036H23.5526C23.9188 34.0361 26.8059 31.6367 28.2703 30.2943C31.7272 27.163 34.8586 24.9264 34.8586 20.0051C34.8586 14.1486 30.1 11.3021 25.0575 11.3021C21.1937 11.3021 18.6315 12.4408 15.8661 14.8403L18.8757 18.826C19.5671 18.0533 21.3157 16.2229 23.8374 16.2229C26.9687 16.2229 28.5954 18.2155 28.5954 20.6967C28.5954 23.4621 26.5211 25.4552 24.6101 27.1222C20.7872 30.4571 17.493 33.3853 16.7608 36.7204V40.5025H35.3874Z" fill="white"/>
</g>
<defs>
<clipPath id="clip0_329_247">
<rect width="52" height="52" fill="white"/>
</clipPath>
</defs>
</svg>
