<svg width="52" height="52" viewBox="0 0 52 52" fill="none" xmlns="http://www.w3.org/2000/svg">
<g clip-path="url(#clip0_329_249)">
<path d="M26 52C40.3594 52 52 40.3594 52 26C52 11.6406 40.3594 0 26 0C11.6406 0 0 11.6406 0 26C0 40.3594 11.6406 52 26 52Z" fill="#6E6E00"/>
<path fill-rule="evenodd" clip-rule="evenodd" d="M35.5469 32.0027C35.5469 27.9766 33.148 25.6175 29.9753 25.0075V24.9264C33.0255 23.7877 34.6118 21.5102 34.6118 18.5412C34.6118 14.7183 31.2768 11.3021 25.4204 11.3021C22.0451 11.3021 19.2795 12.2372 16.7989 13.8644L18.7915 18.0936C19.7269 17.2805 21.4758 16.0198 24.1192 16.0198C27.1288 16.0198 28.5115 17.6056 28.5115 19.436C28.5115 21.6323 26.7628 23.0149 23.9566 23.0149H20.947V27.7729H23.9158C26.844 27.7729 29.3659 28.8305 29.3659 32.1246C29.3659 34.5649 27.2916 36.3544 23.9566 36.3544C21.5163 36.3544 19.5237 35.4188 18.3036 34.4832L16.1073 38.9166C18.4256 40.2176 20.6624 41.0721 24.3631 41.0721C31.0329 41.0721 35.5469 37.0455 35.5469 32.0027Z" fill="white"/>
</g>
<defs>
<clipPath id="clip0_329_249">
<rect width="52" height="52" fill="white"/>
</clipPath>
</defs>
</svg>
