<svg width="52" height="52" viewBox="0 0 52 52" fill="none" xmlns="http://www.w3.org/2000/svg">
<g clip-path="url(#clip0_329_248)">
<path d="M26 52C40.3594 52 52 40.3594 52 26C52 11.6406 40.3594 0 26 0C11.6406 0 0 11.6406 0 26C0 40.3594 11.6406 52 26 52Z" fill="#82C8E6"/>
<path fill-rule="evenodd" clip-rule="evenodd" d="M35.7246 30.0172C35.7246 28.018 34.826 25.7549 32.6557 25.7549C31.6019 25.7549 30.9666 26.313 30.4086 27.1188V22.7947H28.2233V34.2641H30.3308V33.8302C30.7491 34.2178 31.4777 34.4655 32.0982 34.4655C34.7482 34.4655 35.7246 31.8774 35.7246 30.0172ZM33.4461 30.3274C33.4461 31.4584 33.1364 32.9157 31.7416 32.9157C30.7491 32.9157 30.4086 32.404 30.4086 31.831V29.1186C30.4086 28.6379 30.4549 28.4055 30.827 28.0489C31.0594 27.8166 31.4005 27.6305 31.8343 27.6305C33.2137 27.6305 33.4461 29.2113 33.4461 30.3274Z" fill="black"/>
<path fill-rule="evenodd" clip-rule="evenodd" d="M39.9842 23.7866C39.9842 23.1204 39.5189 22.6396 38.7753 22.6396C38.0313 22.6396 37.5511 23.1204 37.5511 23.7866C37.5511 24.4534 38.0313 24.9336 38.7753 24.9336C39.5189 24.9336 39.9842 24.4534 39.9842 23.7866ZM39.86 34.2641V25.9879H37.6753V34.2641H39.86Z" fill="black"/>
<path fill-rule="evenodd" clip-rule="evenodd" d="M47.6472 31.7841C47.6472 30.5289 46.9186 29.8467 45.803 29.4283L44.7957 29.0562C44.2686 28.8702 43.928 28.6688 43.928 28.2349C43.928 27.7387 44.3464 27.4445 45.0745 27.4445C45.6016 27.4445 46.2684 27.6305 46.7486 27.9407L47.4148 26.3439C46.9809 26.1269 46.222 25.8018 45.1832 25.8018C43.2458 25.8018 41.9282 27.0261 41.9282 28.5915C41.9282 29.5679 42.409 30.3274 43.5869 30.7768L44.5628 31.1488C44.9972 31.3193 45.617 31.4899 45.617 32.0634C45.617 32.7142 44.9194 32.9002 44.3464 32.9002C43.695 32.9002 42.9356 32.6523 42.409 32.2803L41.7422 33.9075C42.2069 34.1863 43.1376 34.5429 44.1753 34.5429C46.3456 34.5429 47.6472 33.3959 47.6472 31.7841Z" fill="black"/>
<path fill-rule="evenodd" clip-rule="evenodd" d="M24.5534 31.7242C24.5534 28.0248 22.3492 25.8571 19.4339 25.2967V25.2221C22.2366 24.1758 23.6942 22.0832 23.6942 19.3551C23.6942 15.8423 20.6298 12.7034 15.2486 12.7034C12.1472 12.7034 9.60603 13.5626 7.32675 15.0577L9.15767 18.9437C10.0171 18.1966 11.6241 17.0383 14.053 17.0383C16.8184 17.0383 18.0889 18.4954 18.0889 20.1772C18.0889 22.1953 16.4821 23.4657 13.9036 23.4657H11.1382V27.8377H13.8661C16.5567 27.8377 18.874 28.8094 18.874 31.8363C18.874 34.0785 16.968 35.7228 13.9036 35.7228C11.6614 35.7228 9.83044 34.8631 8.70932 34.0035L6.69127 38.0771C8.82139 39.2726 10.8767 40.0577 14.2771 40.0577C20.4057 40.0577 24.5534 36.3578 24.5534 31.7242Z" fill="black"/>
</g>
<defs>
<clipPath id="clip0_329_248">
<rect width="52" height="52" fill="white"/>
</clipPath>
</defs>
</svg>
