<svg width="52" height="52" viewBox="0 0 52 52" fill="none" xmlns="http://www.w3.org/2000/svg">
<g clip-path="url(#clip0_329_251)">
<path d="M26 52C40.3594 52 52 40.3594 52 26C52 11.6406 40.3594 0 26 0C11.6406 0 0 11.6406 0 26C0 40.3594 11.6406 52 26 52Z" fill="#FF5A00"/>
<path fill-rule="evenodd" clip-rule="evenodd" d="M35.7721 31.3392C35.7721 27.0283 32.6004 22.6766 24.7509 22.2698L23.9376 22.2295L24.3441 16.739H34.6742V11.9805H19.5859L18.4471 26.9063L22.9208 26.9466C28.2079 26.9875 29.5905 29.8345 29.5905 31.9083C29.5905 35.2841 26.7844 36.5448 24.5475 36.5448C22.1072 36.5448 20.4806 35.6501 19.0979 34.7145L16.983 39.1882C19.2199 40.4489 21.8227 41.2625 24.8729 41.2625C31.4203 41.2625 35.7721 36.8297 35.7721 31.3392Z" fill="black"/>
</g>
<defs>
<clipPath id="clip0_329_251">
<rect width="52" height="52" fill="white"/>
</clipPath>
</defs>
</svg>
