<svg width="52" height="52" viewBox="0 0 52 52" fill="none" xmlns="http://www.w3.org/2000/svg">
<path d="M26 52C40.3593 52 51.9999 40.3594 51.9999 26.0001C51.9999 11.6407 40.3593 0.000137329 26 0.000137329C11.6406 0.000137329 6.10352e-05 11.6407 6.10352e-05 26.0001C6.10352e-05 40.3594 11.6406 52 26 52Z" fill="#82DC73"/>
<path fill-rule="evenodd" clip-rule="evenodd" d="M35.8642 31.4203C35.8642 26.053 32.0413 22.9208 27.3645 22.9208C24.3146 22.9208 22.4842 24.0192 21.5083 24.8729C21.8746 19.0979 24.8433 16.2105 28.788 16.2105C30.4152 16.2105 31.8791 16.5765 32.6518 16.9016L33.5466 12.0216C32.367 11.7368 30.9032 11.5337 29.2759 11.5337C20.2477 11.5337 15.6519 18.366 15.6519 28.3304C15.6519 35.9354 18.4173 41.3437 26.1446 41.3437C32.0413 41.3437 35.8642 37.1553 35.8642 31.4203ZM30.1304 32.0308C30.1304 34.5114 28.7069 36.8297 25.9412 36.8297C23.0944 36.8297 21.5489 34.1857 21.5489 31.4612C21.5489 30.6078 21.5489 29.5094 21.8746 29.0215C22.4437 28.1262 23.8672 27.4351 25.6158 27.4351C28.3812 27.4351 30.1304 29.346 30.1304 32.0308Z" fill="black"/>
</svg>
