<svg width="52" height="52" viewBox="0 0 52 52" fill="none" xmlns="http://www.w3.org/2000/svg">
<g clip-path="url(#clip0_329_233)">
<path d="M26 52C40.3594 52 52 40.3594 52 26C52 11.6406 40.3594 0 26 0C11.6406 0 0 11.6406 0 26C0 40.3594 11.6406 52 26 52Z" fill="#82DC73"/>
<path fill-rule="evenodd" clip-rule="evenodd" d="M35.9084 30.0172C35.9084 28.018 35.0093 25.7549 32.84 25.7549C31.7857 25.7549 31.1498 26.313 30.5924 27.1188V22.7947H28.4066V34.2641H30.5151V33.8302C30.9335 34.2178 31.6621 34.4655 32.2814 34.4655C34.9319 34.4655 35.9084 31.8774 35.9084 30.0172ZM33.6298 30.3274C33.6298 31.4584 33.3202 32.9157 31.9248 32.9157C30.9335 32.9157 30.5924 32.404 30.5924 31.831V29.1186C30.5924 28.6379 30.6387 28.4055 31.0107 28.0489C31.2432 27.8166 31.5843 27.6305 32.0181 27.6305C33.3975 27.6305 33.6298 29.2113 33.6298 30.3274Z" fill="black"/>
<path fill-rule="evenodd" clip-rule="evenodd" d="M40.168 23.7866C40.168 23.1204 39.7032 22.6396 38.9591 22.6396C38.2151 22.6396 37.7349 23.1204 37.7349 23.7866C37.7349 24.4534 38.2151 24.9336 38.9591 24.9336C39.7032 24.9336 40.168 24.4534 40.168 23.7866ZM40.0443 34.2641V25.9879H37.8585V34.2641H40.0443Z" fill="black"/>
<path fill-rule="evenodd" clip-rule="evenodd" d="M25.6158 17.4495C19.4128 28.2366 16.3113 35.5982 16.3113 39.5343H10.2948C10.2948 37.89 10.544 36.3208 11.0424 34.826C11.4658 33.5802 12.3004 31.8117 13.5459 29.5194L19.9733 17.5615H7.15601V13.1523H25.6158V17.4495Z" fill="black"/>
<path fill-rule="evenodd" clip-rule="evenodd" d="M47.831 31.7841C47.831 30.5289 47.1029 29.8467 45.9868 29.4283L44.9789 29.0562C44.4524 28.8702 44.1113 28.6688 44.1113 28.2349C44.1113 27.7387 44.5296 27.4445 45.2583 27.4445C45.7854 27.4445 46.4516 27.6305 46.9318 27.9407L47.5986 26.3439C47.1647 26.1269 46.4053 25.8018 45.3664 25.8018C43.429 25.8018 42.112 27.0261 42.112 28.5915C42.112 29.5679 42.5922 30.3274 43.7702 30.7768L44.7471 31.1488C45.1809 31.3193 45.8008 31.4899 45.8008 32.0634C45.8008 32.7142 45.1032 32.9002 44.5296 32.9002C43.8788 32.9002 43.1194 32.6523 42.5922 32.2803L41.926 33.9075C42.3913 34.1863 43.3208 34.5429 44.3596 34.5429C46.5289 34.5429 47.831 33.3959 47.831 31.7841Z" fill="black"/>
</g>
<defs>
<clipPath id="clip0_329_233">
<rect width="52" height="52" fill="white"/>
</clipPath>
</defs>
</svg>
