<svg width="52" height="52" viewBox="0 0 52 52" fill="none" xmlns="http://www.w3.org/2000/svg">
<g clip-path="url(#clip0_329_235)">
<path d="M26 52C40.3594 52 52 40.3594 52 26C52 11.6406 40.3594 0 26 0C11.6406 0 0 11.6406 0 26C0 40.3594 11.6406 52 26 52Z" fill="#D282BE"/>
<path fill-rule="evenodd" clip-rule="evenodd" d="M36.0089 32.4779C36.0089 28.6958 33.6906 26.4184 31.0478 25.1577C33.7315 23.5305 35.1142 21.4567 35.1142 18.7725C35.1142 13.8512 30.9253 11.3706 25.8825 11.3706C20.9611 11.3706 16.6502 14.6647 16.6502 19.4233C16.6502 22.3918 18.1957 24.1409 20.6768 25.6859C17.9115 27.1095 15.7557 29.346 15.7557 33.169C15.7557 37.5207 19.3753 41.3437 25.7605 41.3437C31.6572 41.3437 36.0089 37.9275 36.0089 32.4779ZM29.6237 19.1385C29.6237 20.928 27.9976 22.5955 26.4929 23.2865C24.6626 22.5137 22.3035 21.2531 22.3035 18.8945C22.3035 16.9013 23.727 15.5187 25.9641 15.5187C28.3227 15.5187 29.6237 17.1459 29.6237 19.1385ZM30.0713 32.925C30.0713 35.2024 28.5667 37.1145 25.8416 37.1145C23.0762 37.1145 21.5307 34.8774 21.5307 32.5182C21.5307 30.2816 23.4019 28.411 25.2725 27.6791C27.7128 28.8989 30.0713 30.3225 30.0713 32.925Z" fill="black"/>
</g>
<defs>
<clipPath id="clip0_329_235">
<rect width="52" height="52" fill="white"/>
</clipPath>
</defs>
</svg>
