<svg width="52" height="52" viewBox="0 0 52 52" fill="none" xmlns="http://www.w3.org/2000/svg">
<g clip-path="url(#clip0_329_236)">
<path d="M26 52C40.3594 52 52 40.3594 52 26C52 11.6406 40.3594 0 26 0C11.6406 0 0 11.6406 0 26C0 40.3594 11.6406 52 26 52Z" fill="#D2D200"/>
<path fill-rule="evenodd" clip-rule="evenodd" d="M15.6994 21.2939C15.6994 26.6624 19.5224 29.7937 24.1995 29.7937C27.2496 29.7937 29.0794 28.6958 30.0559 27.8414C29.6893 33.6167 26.7209 36.504 22.7757 36.504C21.149 36.504 19.6852 36.138 18.9122 35.8129L18.0174 40.6929C19.197 40.9777 20.6611 41.1814 22.2877 41.1814C31.3166 41.1814 35.9123 34.3486 35.9123 24.385C35.9123 16.7793 33.1464 11.3706 25.4193 11.3706C19.5224 11.3706 15.6994 15.5595 15.6994 21.2939ZM21.4338 20.684C21.4338 18.2029 22.8573 15.8846 25.6227 15.8846C28.4695 15.8846 30.015 18.5285 30.015 21.2531C30.015 22.1075 30.015 23.2054 29.6893 23.6933C29.1203 24.5881 27.6968 25.2797 25.9481 25.2797C23.1824 25.2797 21.4338 23.3682 21.4338 20.684Z" fill="black"/>
</g>
<defs>
<clipPath id="clip0_329_236">
<rect width="52" height="52" fill="white"/>
</clipPath>
</defs>
</svg>
