<?xml version="1.0" encoding="utf-8"?>
<!-- Generator: Adobe Illustrator 24.1.2, SVG Export Plug-In . SVG Version: 6.00 Build 0)  -->
<svg version="1.2" baseProfile="tiny" id="Calque_1"
	 xmlns="http://www.w3.org/2000/svg" xmlns:xlink="http://www.w3.org/1999/xlink" x="0px" y="0px" viewBox="0 0 92 92"
	 overflow="visible" xml:space="preserve">
<path d="M21.8902817,34.8742104v29.0642052h-7.8315163V34.8742104H3.1643717v-6.3764324h29.617424v6.3764324H21.8902817z
	 M50.4416046,63.9384155V36.0786171c-2.1581345,1.705761-5.5725365,3.3625374-7.9323654,4.4171143l-2.4088097-5.4227066
	c3.7140656-1.5559311,8.1830406-3.9128761,11.6954117-6.5752468h6.174736v35.4406357H50.4416046z M75.8320847,64.8921432
	c-10.6927032,0-12.7989693-10.5428696-12.7989693-18.7230301c0-8.1830406,2.3079643-18.7259102,13.0006599-18.7259102
	s12.8018494,10.5428696,12.8018494,18.7259102C88.8356247,54.3492737,86.5247803,64.8921432,75.8320847,64.8921432z
	 M75.93293,33.4162483c-5.120163,0-5.2699966,9.1367683-5.2699966,12.7528648c0,3.5642357,0.250679,12.7989693,5.2699966,12.7989693
	s5.2210083-9.2865982,5.2210083-12.7989693C81.1539383,42.4521675,81.0041122,33.4162483,75.93293,33.4162483z"/>
<path fill="#6E6E00" d="M87.4000015,13.8000002H4.6000013c-2.5405097,0-4.5999999-2.0594902-4.5999999-4.6000004V4.5999999
	C0.0000013,2.0594902,2.0594916,0,4.6000013,0h82.8000031C89.9405136,0,92,2.0594902,92,4.5999999v4.5999999
	C92,11.74051,89.9405136,13.8000002,87.4000015,13.8000002z M92,87.4000015v-4.5999985
	c0-2.5405121-2.059494-4.5999985-4.5999985-4.5999985H4.5999999C2.0594902,78.2000046,0,80.259491,0,82.8000031v4.5999985
	C0,89.9405136,2.0594902,92,4.5999999,92h82.8000031C89.940506,92,92,89.9405136,92,87.4000015z"/>
</svg>
