<?xml version="1.0" encoding="utf-8"?>
<!-- Generator: Adobe Illustrator 24.1.2, SVG Export Plug-In . SVG Version: 6.00 Build 0)  -->
<svg version="1.2" baseProfile="tiny" id="Calque_1"
	 xmlns="http://www.w3.org/2000/svg" xmlns:xlink="http://www.w3.org/1999/xlink" x="0px" y="0px" viewBox="0 0 92 92"
	 overflow="visible" xml:space="preserve">
<path d="M22.8440113,34.8765373v29.0642052H15.012495V34.8765373H4.1181011v-6.3764324h29.6174221v6.3764324H22.8440113z
	 M51.3953323,63.9407425V36.0809441c-2.1581306,1.705761-5.5725327,3.3625374-7.9323616,4.4171143l-2.4088097-5.4227066
	c3.7140617-1.5559311,8.1830406-3.912878,11.6954079-6.5752468h6.1747398v35.4406357H51.3953323z M64.8915863,63.9407425v-4.6677933
	c0.9018631-4.1174507,4.967453-7.880497,9.6871109-11.9979515c2.3598251-2.0572853,4.9184647-4.6188087,4.9184647-8.0332108
	c0-3.0599976-2.0083008-5.6215172-5.8721924-5.6215172c-3.1118622,0-5.2699966,2.2589798-6.1257553,3.2127075l-3.7140656-4.9184704
	c3.4144058-2.9620304,6.5752487-4.3681297,11.3467636-4.3681297c6.2237244,0,12.0959244,3.6160965,12.0959244,10.8425312
	c0,6.0738907-3.8638992,8.9350739-8.1311798,12.8018494c-1.8066101,1.6567764-5.370842,4.7686386-5.8232117,6.8259239h14.6084595
	v5.9240608H64.8915863z"/>
<path fill="#A50034" d="M87.4000015,13.8000002H4.6000013c-2.5405097,0-4.5999999-2.0594902-4.5999999-4.6000004V4.5999999
	C0.0000013,2.0594902,2.0594916,0,4.6000013,0h82.8000031C89.9405136,0,92,2.0594902,92,4.5999999v4.5999999
	C92,11.74051,89.9405136,13.8000002,87.4000015,13.8000002z M92,87.4000015v-4.5999985
	c0-2.5405121-2.059494-4.5999985-4.5999985-4.5999985H4.5999999C2.0594902,78.2000046,0,80.259491,0,82.8000031v4.5999985
	C0,89.9405136,2.0594902,92,4.5999999,92h82.8000031C89.940506,92,92,89.9405136,92,87.4000015z"/>
</svg>
