<?xml version="1.0" encoding="UTF-8"?>
<!-- Generator: Adobe Illustrator 25.2.1, SVG Export Plug-In . SVG Version: 6.00 Build 0)  -->
<svg version="1.2" baseProfile="tiny" id="Calque_1" xmlns="http://www.w3.org/2000/svg" xmlns:xlink="http://www.w3.org/1999/xlink" x="0px" y="0px" viewBox="0 0 92 92" overflow="visible" xml:space="preserve"><g> <path fill="#00A092" d="M87.3996506,13.8006887H4.6016755c-2.5412059,0-4.6018515-2.0604677-4.6018515-4.601841v-4.598846  c0-2.538347,2.0606456-4.601841,4.6018515-4.601841h82.7979736c2.5413742,0,4.5988312,2.0634942,4.5988312,4.601841v4.598846  C91.9984818,11.740221,89.9410248,13.8006887,87.3996506,13.8006887"/> <path fill="#00A092" d="M91.9998245,87.3981476v-4.5988312c0-2.5413742-2.0606461-4.6018524-4.5990067-4.6018524H4.5999999  c-2.5383573,0-4.5988355,2.0604782-4.5988355,4.6018524v4.5988312C0.0011646,89.9395218,2.0616426,92,4.5999999,92h82.8008194  C89.9391785,92,91.9998245,89.9395218,91.9998245,87.3981476"/> <g>  <path fill="#1D1D1B" d="M22.0879498,34.8202629v29.1036263h-7.8412561V34.8202629H3.338969v-6.3849316h29.6567059v6.3849316   H22.0879498z"/> </g> <g>  <path fill-rule="evenodd" fill="#1D1D1B" d="M88.7017136,56.5284576v-5.5294189h-4.3731079V28.4292946H75.280632   L61.5075226,49.9435997v6.5848579h15.9846725v7.3893776h6.8364105v-7.3893776H88.7017136z M77.4921951,50.9990387h-9.9025192   l7.2384644-11.3602104c1.4074707-2.2117729,2.4129028-4.3732071,2.5635757-4.9764748h0.1004791V50.9990387z"/>  <path fill-rule="evenodd" fill="#1D1D1B" d="M57.6158142,63.9178352V28.4292946h-6.1828194   c-1.6084061,1.256691-5.4287529,3.6192474-9.550705,5.5796585l-2.1613274,1.0053253l2.412693,5.4288368l1.8599358-0.9550858   c1.3070107-0.6535072,4.8758049-2.5133362,6.0823631-3.4684448v27.8982506H57.6158142z"/> </g></g><script xmlns=""/></svg>